<svg width="950" height="950" xmlns="http://www.w3.org/2000/svg"><style>.st2{fill:#ee7a61}</style><path fill="none" id="canvas_background" d="M-1-1h582v402H-1z"/><g><path id="svg_2" fill="#4a3f91" d="M534.32 577.17v18.59c0 21.08.52 36.01 1.58 44.79 1.05 8.8 4.91 16.34 11.6 22.66 6.67 6.32 17.02 9.49 31.09 9.49l80.1-2.11 6.32 112.76c-47.08 10.54-82.91 15.81-107.5 15.81-63.23 0-106.44-14.22-129.62-42.68-23.19-28.45-34.78-80.97-34.78-157.56v-21.41"/><path id="svg_3" d="M393.1 260.11h141.23v261.37H393.1V260.11z" class="st2"/><path id="svg_4" d="M343.57 210.58H484.8v240.29H343.57V210.58z" class="st2" transform="rotate(-90 414.18 330.724)"/><path id="svg_5" d="M393.8 139.97h141.23v261.37H393.8V139.97z" class="st2" transform="rotate(-180 464.417 270.652)"/><path id="svg_6" d="M453.88 200.04h141.23v261.37H453.88V200.04z" class="st2" transform="rotate(-90 524.489 330.724)"/><path id="svg_7" d="M333.73 200.04h141.23v261.37H333.73V200.04z" class="st2" transform="rotate(-90 404.345 330.724)"/></g></svg>