<svg version="1.1" id="Vrstva_1" xmlns="http://www.w3.org/2000/svg" x="0" y="0" viewBox="0 0 950 950" xml:space="preserve"><style>.st2{fill:#ee7a61}</style><path d="M770.41 949.68h-590c-99 0-180-81-180-180v-590c0-99 81-180 180-180h590c99 0 180 81 180 180v590c0 99-81 180-180 180z" fill="#fad8d3"/><path d="M534.32 577.17v18.59c0 21.08.52 36.01 1.58 44.79 1.05 8.8 4.91 16.34 11.6 22.66 6.67 6.32 17.02 9.49 31.09 9.49l80.1-2.11 6.32 112.76c-47.08 10.54-82.91 15.81-107.5 15.81-63.23 0-106.44-14.22-129.62-42.68-23.19-28.45-34.78-80.97-34.78-157.56v-21.41" fill="#4a3f91"/><path class="st2" d="M393.1 260.11h141.23v261.37H393.1z"/><path transform="rotate(-90 414.18 330.724)" class="st2" d="M343.57 210.58H484.8v240.29H343.57z"/><path transform="rotate(-180 464.417 270.652)" class="st2" d="M393.8 139.97h141.23v261.37H393.8z"/><path transform="rotate(-90 524.489 330.724)" class="st2" d="M453.88 200.04h141.23v261.37H453.88z"/><path transform="rotate(-90 404.345 330.724)" class="st2" d="M333.73 200.04h141.23v261.37H333.73z"/></svg>