
<svg version="1.1" id="Vrstva_1" xmlns="http://www.w3.org/2000/svg" x="0" y="0" viewBox="0 0 1366 351" xml:space="preserve"><style>.st0{fill:#ee7a61}.st1{fill:#4a3f91}</style><path class="st0" d="M177.36 246.35c-17.61 3.59-33.42 5.38-47.44 5.38-14.02 0-25.34-1.92-33.98-5.77-8.63-3.85-15.3-9.83-20-17.95-4.7-8.12-7.95-17.44-9.74-27.95-1.79-10.51-2.69-23.63-2.69-39.36s.9-28.93 2.69-39.62c1.79-10.68 5.04-20.13 9.74-28.33 4.7-8.21 11.32-14.19 19.87-17.95s19.66-5.64 33.33-5.64c13.67 0 29.74 1.88 48.21 5.64l-.77 16.67c-17.27-3.08-32.65-4.62-46.15-4.62-18.81 0-31.24 5.6-37.31 16.8-6.07 11.2-9.1 30.3-9.1 57.31 0 13.51.55 24.36 1.67 32.56 1.11 8.21 3.29 15.6 6.54 22.18 3.24 6.58 7.99 11.28 14.23 14.1 6.24 2.82 15.38 4.23 27.44 4.23 12.05 0 26.28-1.54 42.69-4.62l.77 16.94zM225.56 249.17h-19.23V65.06h19.23v63.08c13.67-6.49 26.84-9.74 39.49-9.74 17.09 0 28.59 4.62 34.49 13.85 5.9 9.23 8.85 25.64 8.85 49.23v67.69h-19.23v-67.18c0-17.78-1.75-29.96-5.26-36.54-3.51-6.58-10.9-9.87-22.18-9.87-10.77 0-21.2 1.97-31.28 5.9l-4.87 1.79v105.9zM330.43 120.96h19.23l32.05 111.54h8.46l32.31-111.54h19.23l-53.33 185.13h-19.23l16.67-56.92h-18.97l-36.42-128.21zM532.74 137.63h-40.77v61.28c0 14.7 1.07 24.36 3.21 28.98 2.14 4.61 7.22 6.92 15.26 6.92l22.82-1.54 1.28 15.9c-11.45 1.88-20.17 2.82-26.15 2.82-13.33 0-22.56-3.24-27.69-9.74-5.13-6.5-7.69-18.89-7.69-37.18v-67.44H454.8v-16.67H473V81.73h18.97v39.23h40.77v16.67zM556.33 249.17V120.96h18.98v17.44c14.87-10.26 30.51-17.01 46.92-20.26v19.49c-7.18 1.37-14.66 3.51-22.44 6.41-7.78 2.91-13.72 5.47-17.82 7.69l-6.41 3.33v94.1h-19.23zM735.56 159.68v65.64c.51 6.33 5.47 10.09 14.87 11.28l-.77 15.13c-13.51 0-23.68-3.42-30.51-10.26-15.39 6.84-30.77 10.26-46.16 10.26-11.8 0-20.77-3.33-26.92-10s-9.23-16.24-9.23-28.72 3.16-21.67 9.49-27.56c6.32-5.9 16.24-9.53 29.74-10.9l40.26-3.85v-11.03c0-8.72-1.88-14.96-5.64-18.72-3.76-3.76-8.89-5.64-15.38-5.64-13.68 0-27.87.86-42.57 2.56l-7.95.77-.77-14.62c18.8-3.76 35.47-5.64 50-5.64 14.53 0 25.08 3.33 31.67 10 6.58 6.68 9.87 17.11 9.87 31.3zm-78.97 52.31c0 15.73 6.5 23.59 19.49 23.59 11.62 0 23.08-1.96 34.36-5.9l5.9-2.05v-42.31l-37.95 3.59c-7.69.68-13.25 2.91-16.67 6.67-3.43 3.76-5.13 9.23-5.13 16.41zm.25-127.44l55.39-25.13 6.67 16.41-56.67 21.8-5.39-13.08z"/><path class="st1" d="M866.84 198.23v4.52c0 5.13.13 8.76.38 10.9.26 2.14 1.19 3.98 2.82 5.51 1.62 1.54 4.14 2.31 7.56 2.31l19.49-.51 1.54 27.44c-11.46 2.56-20.17 3.85-26.16 3.85-15.38 0-25.9-3.46-31.54-10.38-5.64-6.92-8.46-19.7-8.46-38.33v-5.21M920.69 249.17V120.96h34.1v13.59c14.36-8.55 28.03-14.1 41.03-16.67v34.62c-13.85 2.91-25.73 5.9-35.64 8.97l-5.13 1.79v85.9h-34.36zM1016.07 104.55V69.68h34.36v34.87h-34.36zm0 144.62V120.96h34.36v128.21h-34.36zM1180.44 160.96v53.34c.34 4.1 1.03 6.97 2.05 8.59 1.03 1.63 3.16 2.78 6.41 3.46l-1.03 25.9c-8.72 0-15.69-.6-20.9-1.79-5.22-1.2-10.47-3.59-15.77-7.18-12.31 5.98-24.87 8.97-37.69 8.97-26.5 0-39.74-14.01-39.74-42.05 0-13.67 3.67-23.37 11.02-29.1s18.63-9.1 33.85-10.13l27.44-2.05v-7.95c0-5.3-1.2-8.93-3.59-10.9-2.4-1.96-6.24-2.95-11.54-2.95l-48.21 2.05-1.03-23.85c18.29-4.96 35.68-7.44 52.18-7.44 16.49 0 28.37 3.42 35.64 10.26s10.91 17.78 10.91 32.82zm-89.49-78.72l64.62-26.15 10.26 29.49-67.18 18.98-7.7-22.32zm31.79 112.57c-9.58.86-14.36 5.99-14.36 15.38 0 9.4 4.19 14.1 12.56 14.1 6.49 0 13.59-1.03 21.28-3.08l3.85-1.03v-27.44l-23.33 2.07zM1207.87 151.73v-30.77H1303v30.77l-53.85 66.67H1303v30.77h-95.13V218.4l53.85-66.67h-53.85zm39.23-51.28l-32.31-38.72h31.54l11.79 17.18 11.8-17.18h31.54l-32.82 38.72h-21.54z"/><path class="st0" d="M832.48 121.09h34.36v63.59h-34.36z"/><path transform="rotate(-90 837.612 138.272)" class="st0" d="M820.43 109.04h34.36v58.46h-34.36z"/><path transform="rotate(-180 849.834 123.656)" class="st0" d="M832.65 91.86h34.36v63.59h-34.36z"/><path transform="rotate(-90 864.45 138.272)" class="st0" d="M847.27 106.48h34.36v63.59h-34.36z"/><path transform="rotate(-90 835.219 138.272)" class="st0" d="M818.04 106.48h34.36v63.59h-34.36z"/></svg>