<svg version="1.1" id="Vrstva_1" xmlns="http://www.w3.org/2000/svg" x="0" y="0" viewBox="0 0 964 193" xml:space="preserve">
  <style>
    .st0{fill:#ee7a61}.st1{fill:#4a3f91}
  </style>
  <path class="st0" d="M51.08 29.26c-17.77 0-26.66 6.7-26.66 20.08 0 7.46 2.04 12.59 6.13 15.37 4.09 2.79 12.38 5.57 24.88 8.35 12.5 2.79 21.36 6.4 26.57 10.84 5.21 4.44 7.82 11.76 7.82 21.95 0 25.24-13.09 37.86-39.28 37.86-8.65 0-19.49-1.01-32.52-3.02l-6.4-.89 1.42-11.37c16.11 2.13 28.38 3.2 36.79 3.2 17.53 0 26.3-8.23 26.3-24.7 0-6.63-1.93-11.4-5.78-14.31-3.85-2.9-11.05-5.36-21.59-7.38-13.86-2.96-23.7-6.78-29.5-11.46-5.81-4.68-8.71-12.53-8.71-23.55 0-22.04 13.21-33.06 39.63-33.06 8.65 0 19.02.89 31.1 2.67l6.04.89-1.22 11.55c-16.47-2.01-28.15-3.02-35.02-3.02zM124.48 142.12h-13.33V53.26h13.15v6.22c8.89-5.33 17.53-8 25.95-8 11.02 0 18.72 3.02 23.1 9.06 3.91-2.37 8.98-4.47 15.2-6.31 6.22-1.84 11.7-2.75 16.44-2.75 11.85 0 19.82 3.17 23.9 9.51 4.09 6.34 6.13 17.75 6.13 34.21v46.92H221.7V95.56c0-12.32-1.19-20.76-3.55-25.33-2.37-4.56-7.41-6.84-15.11-6.84-3.91 0-7.94.56-12.09 1.69-4.15 1.13-7.35 2.22-9.6 3.29l-3.38 1.6c1.54 3.91 2.31 12.56 2.31 25.95v46.21h-13.33V96.27c0-12.8-1.16-21.47-3.47-26.04-2.31-4.56-7.38-6.84-15.2-6.84-3.79 0-7.67.56-11.64 1.69-3.97 1.13-7.02 2.22-9.15 3.29l-3.02 1.6v72.15zM322.48 80.09v45.5c.36 4.38 3.79 6.99 10.31 7.82l-.53 10.49c-9.36 0-16.41-2.37-21.15-7.11-10.66 4.74-21.33 7.11-31.99 7.11-8.18 0-14.4-2.31-18.66-6.93-4.27-4.62-6.4-11.26-6.4-19.91s2.19-15.02 6.58-19.11c4.38-4.09 11.26-6.6 20.62-7.55l27.9-2.67v-7.64c0-6.04-1.31-10.37-3.91-12.97-2.61-2.6-6.16-3.91-10.66-3.91-9.48 0-19.31.59-29.5 1.78l-5.51.53-.53-10.13c13.03-2.6 24.59-3.91 34.66-3.91 10.07 0 17.39 2.31 21.95 6.93 4.53 4.62 6.82 11.85 6.82 21.68zm-54.74 36.26c0 10.9 4.5 16.35 13.51 16.35 8.06 0 16-1.36 23.82-4.09l4.09-1.42V97.87l-26.3 2.49c-5.33.47-9.18 2.02-11.55 4.62-2.39 2.6-3.57 6.39-3.57 11.37zM348.78 142.12V53.26h13.15v12.09c10.31-7.11 21.15-11.79 32.52-14.04v13.51c-4.98.95-10.16 2.43-15.55 4.44-5.39 2.02-9.51 3.79-12.35 5.33l-4.44 2.31v65.23h-13.33zM456.31 64.81h-28.26v42.48c0 10.19.74 16.88 2.22 20.08 1.48 3.2 5 4.8 10.57 4.8l15.82-1.07.89 11.02c-7.94 1.3-13.98 1.96-18.13 1.96-9.24 0-15.64-2.25-19.19-6.75-3.55-4.5-5.33-13.09-5.33-25.77V64.81h-12.62V53.26h12.62v-27.2h13.15v27.19h28.26v11.56z"/>
  <path class="st1" d="M537.35 106.55v3.41c0 3.55.09 6.07.27 7.55.18 1.48.83 2.75 1.96 3.82 1.12 1.07 2.87 1.6 5.24 1.6l13.51-.36 1.07 19.02c-7.94 1.78-13.98 2.67-18.13 2.67-10.66 0-17.95-2.4-21.86-7.2-3.91-4.8-5.87-13.65-5.87-26.57v-3.94M574.67 142.12V53.26h23.64v9.42c9.95-5.92 19.43-9.78 28.44-11.55v23.99c-9.6 2.02-17.83 4.09-24.7 6.22l-3.55 1.24v59.54h-23.83zM640.79 41.88V17.71h23.82v24.17h-23.82zm0 100.24V53.26h23.82v88.87h-23.82zM754.71 80.98v36.97c.24 2.84.71 4.83 1.42 5.95.71 1.13 2.19 1.93 4.44 2.4l-.71 17.95c-6.04 0-10.87-.42-14.49-1.24-3.62-.83-7.26-2.49-10.93-4.98-8.53 4.15-17.24 6.22-26.13 6.22-18.37 0-27.55-9.71-27.55-29.15 0-9.48 2.55-16.2 7.64-20.17 5.09-3.97 12.91-6.31 23.46-7.02l19.02-1.42v-5.51c0-3.67-.83-6.19-2.49-7.55-1.66-1.36-4.33-2.04-8-2.04l-33.41 1.42-.71-16.53c12.68-3.44 24.73-5.15 36.17-5.15 11.43 0 19.67 2.37 24.7 7.11 5.05 4.73 7.57 12.32 7.57 22.74zm-39.99 23.46c-6.64.59-9.95 4.15-9.95 10.66 0 6.52 2.9 9.78 8.71 9.78 4.5 0 9.42-.71 14.75-2.13l2.67-.71v-19.02l-16.18 1.42zM857.97 153.23c0 10.13-3.91 17.62-11.73 22.48-7.82 4.86-18.4 7.29-31.72 7.29-13.33 0-23.58-1.78-30.75-5.33-7.17-3.55-10.75-10.01-10.75-19.37 0-7.46 4.27-14.52 12.8-21.15-4.39-2.96-6.58-7.46-6.58-13.51 0-2.37 1.78-6.28 5.33-11.73l1.6-2.49c-8.06-5.8-12.09-14.37-12.09-25.68s3.4-19.52 10.22-24.62c6.81-5.09 15.85-7.64 27.1-7.64 5.09 0 10.13.59 15.11 1.78l2.84.53 28.61-.89v19.02l-13.33-1.07c2.6 4.03 3.91 8.06 3.91 12.09 0 11.85-3.02 20.03-9.06 24.53-6.04 4.5-15.52 6.75-28.44 6.75-2.73 0-5.15-.24-7.29-.71-1.19 3.08-1.78 5.6-1.78 7.55 0 1.95 1.01 3.29 3.02 4s6.75 1.13 14.22 1.24c14.93.12 25.12 2.11 30.57 5.95 5.46 3.86 8.19 10.85 8.19 20.98zm-61.5 2.58c0 5.09 6.25 7.64 18.75 7.64s18.75-2.96 18.75-8.89c0-3.2-1.07-5.24-3.2-6.13-2.13-.89-6.64-1.39-13.51-1.51l-16-1.24c-3.19 3.2-4.79 6.57-4.79 10.13zm1.43-72.78c0 8.71 4.53 13.06 13.6 13.06 9.06 0 13.6-4.35 13.6-13.06s-4.53-13.06-13.6-13.06c-9.07-.01-13.6 4.35-13.6 13.06zM896.27 119.64c2.78 2.43 6.78 3.64 12 3.64 11.02 0 20.85-.36 29.5-1.07l4.98-.53.36 17.6c-13.63 3.32-25.95 4.98-36.97 4.98-13.39 0-23.1-3.55-29.15-10.66-6.04-7.11-9.06-18.66-9.06-34.66 0-31.87 13.09-47.81 39.28-47.81 25.83 0 38.75 13.39 38.75 40.17l-1.78 16.53h-52.25c.1 5.44 1.55 9.38 4.34 11.81zm26.22-29.95c0-7.11-1.13-12.06-3.38-14.84-2.25-2.78-6.19-4.18-11.82-4.18s-9.6 1.45-11.91 4.35c-2.31 2.9-3.53 7.79-3.64 14.66h30.75z"/>
  <path class="st0" d="M513.56 51.12h23.63v43.74h-23.63z"/>
  <path transform="rotate(-180 525.49 52.888)" class="st0" d="M513.67 31.02h23.63v43.74h-23.63z"/>
  <path transform="rotate(-90 535.544 62.94)" class="st0" d="M523.73 41.07h23.63v43.74h-23.63z"/>
  <path transform="rotate(-90 515.438 62.94)" class="st0" d="M503.62 41.07h23.63v43.74h-23.63z"/>
</svg>